TITLE:   CACT 1 - PC 11_19.NOGROUPS.COPY.01
FCM: NON-DROP FRAME
000001  CURSE_1                          V     C        01:00:10:13 01:00:13:15 01:00:38:14 01:00:41:16
*FROM CLIP NAME:  CURSE 1
*LOC: 01:00:38:14 RED     ONC311_001_000
000002  A553C008_131105_R2NY             V     C        18:15:16:09 18:15:17:06 01:01:12:17 01:01:13:14
*FROM CLIP NAME:  V1B-3 A
*LOC: 01:01:12:17 RED     ONC311_001_002
*LOC: 01:01:13:10 YELLOW     Add some music here
000003  A553C008_131105_R2NY             V     C        18:15:17:06 18:15:17:06 01:01:13:14 01:01:13:14
000003  A553C008_131105_R2NYB           V     D    003 18:15:17:06 18:15:17:14 01:01:13:14 01:01:13:22
*FROM CLIP NAME:  V1B-3 A
*TO CLIP NAME:  V1B-3 A
*LOC: 01:01:13:14 RED     ONC311_001_002
000004  A553C008_131105_R2NYB           V     C        18:15:17:14 18:15:17:14 01:01:13:22 01:01:13:22
000004  A553C008_131105_R2NY             V     D    003 18:15:17:14 18:15:18:04 01:01:13:22 01:01:14:12
*FROM CLIP NAME:  V1B-3 A
*TO CLIP NAME:  V1B-3 A
000005  A554C002_131105_R2NY             V     C        18:43:18:11 18:43:22:11 01:01:22:07 01:01:26:07
*FROM CLIP NAME:  V1C-2 A
*LOC: 01:01:22:07 RED     ONC311_001_003
*LOC: 01:01:24:00 BLUE     Missing ADR
000006  A553C010_131105_R2NY             V     C        18:31:47:10 18:31:48:09 01:02:24:01 01:02:25:00
*FROM CLIP NAME:  V1B-6 A
*LOC: 01:02:24:01 RED     ONC311_001_004
000007  B466C002_131105_R2M5             V     C        19:26:00:08 19:26:01:22 01:02:25:00 01:02:26:14
*FROM CLIP NAME:  V1F-2 B
*LOC: 01:02:25:00 RED     ONC311_001_005
000008  B465C006_131105_R2M5             V     C        18:44:48:23 18:44:50:06 01:02:26:14 01:02:27:21
*FROM CLIP NAME:  V1C-2 B
*LOC: 01:02:26:14 RED     ONC311_001_006
000009  B466C002_131105_R2M5             V     C        19:26:04:01 19:26:05:05 01:02:27:21 01:02:29:01
*FROM CLIP NAME:  V1F-2 B
*LOC: 01:02:27:21 RED     ONC311_001_007
000010  A553C009_131105_R2NY             V     C        18:25:41:15 18:25:43:10 01:02:29:21 01:02:31:16
*FROM CLIP NAME:  V1B-5 A
*LOC: 01:02:29:21 RED     ONC311_001_008
000011  A580C003_131108_R2NY             V     C        20:01:54:20 20:02:02:15 01:03:06:02 01:03:13:21
*FROM CLIP NAME:  2-2 A V
*LOC: 01:03:06:02 RED     ONC311_001_009
*LOC: 01:03:10:02 BLUE     Missing ADR
000012  A553C010_131105_R2NY             V     C        18:32:18:06 18:32:25:09 01:03:13:21 01:03:21:00
*FROM CLIP NAME:  V1B-6 A
*LOC: 01:03:13:21 RED     ONC311_001_010
000013  WATER-WELL.JPG                   V     C        01:00:00:00 01:00:03:03 01:03:21:00 01:03:24:03
*FROM CLIP NAME:  WATER-WELL.JPG
*LOC: 01:03:21:00 RED     ONC311_001_011
000014  W138C004_131103_R2NY             V     C        14:53:27:13 14:53:29:18 01:03:37:22 01:03:40:03
*FROM CLIP NAME:  VX4B-1 W
*LOC: 01:03:37:22 RED     ONC311_004_001
000015  W137C004_131103_R2NY             V     C        14:19:37:07 14:19:41:20 01:03:40:03 01:03:44:16
*FROM CLIP NAME:  VX4-4 W
*LOC: 01:03:40:03 RED     ONC311_004_002
000016  W139C003_131103_R2NY             V     C        15:17:04:13 15:17:06:06 01:03:44:16 01:03:46:09
*FROM CLIP NAME:  VX4C-2 W
*LOC: 01:03:44:16 RED     ONC311_004_003
000017  W137C004_131103_R2NY             V     C        14:19:43:19 14:19:45:16 01:03:46:09 01:03:48:06
*FROM CLIP NAME:  VX4-4 W
*LOC: 01:03:46:09 RED     ONC311_004_004
*LOC: 01:03:47:00 YELLOW     Add music here
000018  W140C001_131103_R2NY             V     C        15:34:53:12 15:34:56:00 01:03:48:06 01:03:50:18
*FROM CLIP NAME:  VX4D-2 W
*LOC: 01:03:48:06 RED     ONC311_004_005
000019  X096C006_131103_R2M5             V     C        14:33:36:21 14:33:41:19 01:03:50:18 01:03:55:16
*FROM CLIP NAME:  VX4A-1 X
*LOC: 01:03:50:18 RED     ONC311_004_006
000020  X108C001_131110_R2M5             V     C        01:48:17:15 01:48:20:04 01:03:55:16 01:03:58:05
*FROM CLIP NAME:  VX4G-3 X
*LOC: 01:03:55:16 RED     ONC311_004_007
000021  W138C002_131103_R2NY             V     C        14:39:45:07 14:39:50:02 01:03:58:05 01:04:03:00
*FROM CLIP NAME:  VX4A-2 W
*LOC: 01:03:58:05 RED     ONC311_004_008
000022  W139C003_131103_R2NY             V     C        15:17:29:10 15:17:30:21 01:04:03:00 01:04:04:11
*FROM CLIP NAME:  VX4C-2 W
*LOC: 01:04:03:00 RED     ONC311_004_009
000023  X108C001_131110_R2M5             V     C        01:48:31:08 01:48:33:07 01:04:04:11 01:04:06:10
*FROM CLIP NAME:  VX4G-3 X
*LOC: 01:04:04:11 RED     ONC311_004_010
000024  X097C001_131103_R2M5             V     C        14:39:53:14 14:39:57:06 01:04:06:10 01:04:10:02
*FROM CLIP NAME:  VX4A-2 X
*LOC: 01:04:06:10 RED     ONC311_004_011
000025  X096C005_131103_R2M5             V     C        14:20:10:14 14:20:12:08 01:04:10:02 01:04:11:20
*FROM CLIP NAME:  VX4-4 X
*LOC: 01:04:10:02 RED     ONC311_004_012
000026  W140C003_131103_R2NY             V     C        15:39:22:23 15:39:25:11 01:04:11:20 01:04:14:08
*FROM CLIP NAME:  VX4D-3 W
*LOC: 01:04:11:20 RED     ONC311_004_013
000027  W138C003_131103_R2NY             V     C        14:44:20:07 14:44:22:06 01:04:14:08 01:04:16:07
*FROM CLIP NAME:  VX4A-3 W
*LOC: 01:04:14:08 RED     ONC311_004_014
000028  X108C001_131110_R2M5             V     C        01:48:45:15 01:48:48:21 01:04:16:07 01:04:19:13
*FROM CLIP NAME:  VX4G-3 X
*LOC: 01:04:16:07 RED     ONC311_004_015
000029  W138C003_131103_R2NY             V     C        14:44:24:21 14:44:26:06 01:04:19:13 01:04:20:22
*FROM CLIP NAME:  VX4A-3 W
*LOC: 01:04:19:13 RED     ONC311_004_016
000030  X108C001_131110_R2M5             V     C        01:48:49:09 01:48:51:02 01:04:20:22 01:04:22:15
*FROM CLIP NAME:  VX4G-3 X
*LOC: 01:04:20:22 RED     ONC311_004_017
000031  W138C003_131103_R2NY             V     C        14:44:26:23 14:44:29:00 01:04:22:15 01:04:24:16
*FROM CLIP NAME:  VX4A-3 W
*LOC: 01:04:22:15 RED     ONC311_004_018
000032  X108C002_131110_R2M5             V     C        01:57:20:02 01:57:22:13 01:04:24:16 01:04:27:03
*FROM CLIP NAME:  VX4H-1 X
*LOC: 01:04:24:16 RED     ONC311_004_019
000033  W140C003_131103_R2NY             V     C        15:39:27:17 15:39:30:14 01:04:27:03 01:04:30:00
*FROM CLIP NAME:  VX4D-3 W
*LOC: 01:04:27:03 RED     ONC311_004_020
000034  W138C003_131103_R2NY             V     C        14:44:30:11 14:44:32:13 01:04:30:00 01:04:32:02
*FROM CLIP NAME:  VX4A-3 W
*LOC: 01:04:30:00 RED     ONC311_004_021
000035  W139C003_131103_R2NY             V     C        15:17:52:07 15:17:57:23 01:04:32:02 01:04:37:18
*FROM CLIP NAME:  VX4C-2 W
*LOC: 01:04:32:02 RED     ONC311_004_022
000036  W137C004_131103_R2NY             V     C        14:20:33:20 14:20:35:16 01:04:37:18 01:04:39:14
*FROM CLIP NAME:  VX4-4 W
*LOC: 01:04:37:18 RED     ONC311_004_023
000037  W140C003_131103_R2NY             V     C        15:39:49:22 15:39:51:12 01:04:39:14 01:04:41:04
*FROM CLIP NAME:  VX4D-3 W
*LOC: 01:04:39:14 RED     ONC311_004_024
000038  W137C004_131103_R2NY             V     C        14:20:37:06 14:20:40:02 01:04:41:04 01:04:44:00
*FROM CLIP NAME:  VX4-4 W
*LOC: 01:04:41:04 RED     ONC311_004_025
000039  W140C004_131103_R2NY             V     C        15:52:57:00 15:53:05:00 01:04:44:00 01:04:52:00
*FROM CLIP NAME:  VX4E-1 W
*LOC: 01:04:44:00 RED     ONC311_004_026
000040  X099C003_131103_R2M5             V     C        16:07:14:09 16:07:17:08 01:04:52:00 01:04:54:23
*FROM CLIP NAME:  VX4F-2 X MOS
*LOC: 01:04:52:00 RED     ONC311_004_027
000041  W140C004_131103_R2NY             V     C        15:53:18:20 15:53:22:06 01:04:54:23 01:04:58:09
*FROM CLIP NAME:  VX4E-1 W
*LOC: 01:04:54:23 RED     ONC311_004_028
000042  W138C003_131103_R2NY             V     C        14:45:11:19 14:45:14:01 01:04:58:09 01:05:00:15
*FROM CLIP NAME:  VX4A-3 W
*LOC: 01:04:58:09 RED     ONC311_004_029
000043  W140C004_131103_R2NY             V     C        15:53:24:12 15:53:26:18 01:05:00:15 01:05:02:21
*FROM CLIP NAME:  VX4E-1 W
*LOC: 01:05:00:15 RED     ONC311_004_030
000044  W138C002_131103_R2NY             V     C        14:40:45:03 14:40:46:14 01:05:02:21 01:05:04:08
*FROM CLIP NAME:  VX4A-2 W
*LOC: 01:05:02:21 RED     ONC311_004_031
000045  W140C004_131103_R2NY             V     C        15:53:36:06 15:53:43:03 01:05:04:08 01:05:11:05
*FROM CLIP NAME:  VX4E-1 W
*LOC: 01:05:04:08 RED     ONC311_004_032
000046  W138C003_131103_R2NY             V     C        14:45:31:17 14:45:38:01 01:05:11:05 01:05:17:13
*FROM CLIP NAME:  VX4A-3 W
*LOC: 01:05:11:05 RED     ONC311_004_033
000047  W140C004_131103_R2NY             V     C        15:53:50:03 15:53:52:20 01:05:17:13 01:05:20:06
*FROM CLIP NAME:  VX4E-1 W
*LOC: 01:05:17:13 RED     ONC311_004_034
000048  W138C003_131103_R2NY             V     C        14:45:42:03 14:45:43:22 01:05:20:06 01:05:22:01
*FROM CLIP NAME:  VX4A-3 W
*LOC: 01:05:20:06 RED     ONC311_004_035
000049  W140C004_131103_R2NY             V     C        15:53:56:04 15:53:58:04 01:05:22:01 01:05:24:01
*FROM CLIP NAME:  VX4E-1 W
*LOC: 01:05:22:01 RED     ONC311_004_036
000050  W138C003_131103_R2NY             V     C        14:45:50:09 14:45:52:02 01:05:24:01 01:05:25:18
*FROM CLIP NAME:  VX4A-3 W
*LOC: 01:05:24:01 RED     ONC311_004_037
000051  X098C002_131103_R2M5             V     C        15:36:46:13 15:36:49:00 01:05:25:18 01:05:28:05
*FROM CLIP NAME:  VX4D-2 X
*LOC: 01:05:25:18 RED     ONC311_004_038
000052  W140C004_131103_R2NY             V     C        15:54:07:10 15:54:09:16 01:05:28:05 01:05:30:11
*FROM CLIP NAME:  VX4E-1 W
*LOC: 01:05:28:05 RED     ONC311_004_039
000053  W138C003_131103_R2NY             V     C        14:46:06:21 14:46:11:13 01:05:30:11 01:05:35:03
*FROM CLIP NAME:  VX4A-3 W
*LOC: 01:05:30:11 RED     ONC311_004_040
000054  W139C003_131103_R2NY             V     C        15:19:21:06 15:19:24:19 01:05:35:03 01:05:38:16
*FROM CLIP NAME:  VX4C-2 W
*LOC: 01:05:35:03 RED     ONC311_004_041
000055  X099C003_131103_R2M5             V     C        16:05:54:01 16:05:56:17 01:05:38:16 01:05:41:08
*FROM CLIP NAME:  VX4F-2 X MOS
*LOC: 01:05:38:16 RED     ONC311_004_042
000056  W140C004_131103_R2NY             V     C        15:54:19:19 15:54:21:11 01:05:41:08 01:05:43:00
*FROM CLIP NAME:  VX4E-1 W
*LOC: 01:05:41:08 RED     ONC311_004_043
000057  B454C010_131104_R2M5             V     C        11:24:47:09 11:24:48:07 01:07:18:09 01:07:19:07
*FROM CLIP NAME:  V7A-2 B MOS
*LOC: 01:07:18:09 RED     ONC311_007_001
000058  B454C008_131104_R2M5             V     C        11:19:59:12 11:20:00:22 01:07:20:20 01:07:22:06
*FROM CLIP NAME:  V7-2 B
*LOC: 01:07:20:20 RED     ONC311_007_002
000059  A541C012_131104_R2NY             V     C        11:32:42:17 11:32:45:00 01:07:28:07 01:07:30:14
*FROM CLIP NAME:  V6E-1 A MOS
*LOC: 01:07:28:07 RED     ONC311_007_003
000060  B454C007_131104_R2M5             V     C        11:18:13:16 11:18:14:13 01:07:36:04 01:07:37:01
*FROM CLIP NAME:  V7-1 B
*LOC: 01:07:36:04 RED     ONC311_007_004
000061  B456C005_131104_R2M5             V     C        15:46:14:12 15:46:15:21 01:07:39:13 01:07:40:22
*FROM CLIP NAME:  V9D-1 B MOS
*LOC: 01:07:39:13 RED     ONC311_007_005
000062  A544C001_131104_R2NY             V     C        15:00:56:03 15:00:57:14 01:07:40:22 01:07:42:09
*FROM CLIP NAME:  V6G-1 A
*LOC: 01:07:40:22 RED     ONC311_007_006
000063  B456C005_131104_R2M5             V     C        15:46:58:23 15:47:00:23 01:07:43:23 01:07:45:23
*FROM CLIP NAME:  V9D-1 B MOS
*LOC: 01:07:43:23 RED     ONC311_007_007
